<svg xmlns="http://www.w3.org/2000/svg" version="1.1" xmlns:xlink="http://www.w3.org/1999/xlink" width="1500" height="1500" viewBox="0 0 1500 1500"><rect width="1500" height="1500" x="0" y="0" id="background" stroke="transparent" fill="#8abcd7"></rect><svg xml:space="preserve" width="1000" height="1000" data-version="2" data-id="lg_WnAuf2gmcOS9ra1ajS" viewBox="0 0 379 145" x="250" y="250"><rect width="100%" height="100%" fill="transparent"></rect><path fill="#fff" d="m81.175 7.535 1.45-3.23q-1.79-.94-3.74-1.57-1.96-.64-4.04-.94-2.08-.3-4.29-.3-5.36 0-9.05 2.09-3.7 2.08-5.61 5.99-1.92 3.91-1.92 9.35v26.77q0 5.53 2.04 9.31 2.04 3.78 5.7 5.7 3.65 1.91 8.5 1.91 2.8 0 5.44-.64 2.63-.64 4.89-1.78 2.25-1.15 3.78-2.77l.34 4.34h4.33v-25.5h-17.17l1.7 4.67h10.97v4.93q0 2.81-1.11 5.06-1.1 2.25-3.06 3.83-1.95 1.57-4.59 2.42-2.63.85-5.69.85-3.66 0-6.16-1.45-2.51-1.44-3.79-4.16-1.27-2.72-1.27-6.55v-27.62q0-4.42 1.57-7.18 1.57-2.77 4.59-4.04 3.02-1.28 7.18-1.28 1.45 0 2.94.17 1.48.17 3.01.56 1.53.38 3.06 1.06"></path><rect width="35.02" height="61.12" x="-17.51" y="-30.56" fill="none" rx="0" ry="0" transform="translate(71.98 32.55)"></rect><path fill="#fff" d="m140.505 61.765-19.38-59.5h-4.5l-19.13 59.5h5.1l6.72-20.83h19.29l6.89 20.83Zm-29.92-25.5 8.25-26.69 8.5 26.69Z"></path><rect width="43.01" height="59.5" x="-21.5" y="-29.75" fill="none" rx="0" ry="0" transform="translate(119.5 32.52)"></rect><path fill="#fff" d="M167.365 2.265h-18.78v59.5h19.63q5.7 0 9.52-2.13 3.83-2.12 5.83-6.12 1.99-3.99 1.99-9.52 0-4.08-1.19-7.18-1.19-3.1-3.23-5.23-2.04-2.12-4.5-3.23 1.87-1.27 3.14-3.01 1.28-1.75 1.96-3.91.68-2.17.68-4.72 0-4.93-1.79-8.12-1.78-3.19-5.14-4.76-3.36-1.57-8.12-1.57m-.08 24.48h-13.86V6.765h13.26q3.57 0 5.95 1.11 2.38 1.1 3.57 3.31t1.19 5.53q0 2.97-1.1 5.27-1.11 2.29-3.32 3.53-2.21 1.23-5.69 1.23m.76 30.51h-14.62v-25.84h15.98q3.57 0 6.04 1.66 2.46 1.66 3.7 4.46 1.23 2.81 1.23 6.12 0 4.51-1.4 7.57-1.41 3.06-4.13 4.55-2.72 1.48-6.8 1.48"></path><rect width="36.97" height="59.5" x="-18.48" y="-29.75" fill="none" rx="0" ry="0" transform="translate(167.57 32.52)"></rect><path fill="#fff" d="M213.095 2.265h-20.06v59.5h4.85v-20.83h15.21q.85 0 1.66-.04.81-.04 1.57-.13.77-.08 1.45-.25l7.73 21.25h4.85l-8.25-22.53q2.72-1.36 4.47-3.65 1.74-2.3 2.59-5.78.85-3.49.85-8.33 0-5.44-1.11-9.14-1.1-3.7-3.27-5.91t-5.31-3.18q-3.15-.98-7.23-.98m.43 34h-15.64v-29.5h15.64q2.46 0 4.59.64 2.12.64 3.7 2.21 1.57 1.57 2.46 4.46.89 2.89.89 7.4 0 4.84-.89 7.82-.89 2.97-2.51 4.46-1.61 1.49-3.69 2-2.09.51-4.55.51"></path><rect width="37.32" height="59.5" x="-18.66" y="-29.75" fill="none" rx="0" ry="0" transform="translate(212.2 32.52)"></rect><path fill="#fff" d="m235.455 6.425 5.78.17v55.17h4.76v-59.5h-10.54Z"></path><rect width="10.54" height="59.5" x="-5.27" y="-29.75" fill="none" rx="0" ry="0" transform="translate(241.22 32.52)"></rect><path fill="#fff" d="M253.475 61.765h28.22v-4.25h-23.38v-26.1h14.62l1.53-4.67h-16.15V6.685h23.55v-4.42h-28.39Z"></path><rect width="28.39" height="59.5" x="-14.2" y="-29.75" fill="none" rx="0" ry="0" transform="translate(268.17 32.52)"></rect><path fill="#fff" d="M289.005 61.765h30.68v-4.25h-25.84V2.265h-4.84Z"></path><rect width="30.68" height="59.5" x="-15.34" y="-29.75" fill="none" rx="0" ry="0" transform="translate(304.85 32.52)"></rect><path fill="#fff" d="m37.315 88.445 1.36-4.08q-1.95-1.1-4.12-1.78-2.17-.68-4.38-1.02-2.21-.34-4.5-.34-3.49 0-6.84.76-3.36.77-6.12 2.47-2.77 1.7-4.42 4.5-1.66 2.81-1.66 6.8 0 3.32 1.36 5.78 1.36 2.47 3.65 4.25 2.3 1.79 5.19 3.19 2.89 1.4 5.91 2.59 3.01 1.19 5.9 2.47 2.89 1.27 5.19 2.84 2.29 1.58 3.65 3.66 1.36 2.08 1.36 4.97 0 3.4-1.23 5.78-1.23 2.38-3.4 3.83-2.17 1.44-4.93 2.12-2.76.68-5.74.68-2.89 0-6.12-.81-3.23-.8-6.12-2.42-2.89-1.61-4.67-3.99l-2.98 2.97q2.64 3.06 5.78 5.02 3.15 1.95 6.8 2.89 3.66.93 7.65.93 3.74 0 7.31-.93 3.57-.94 6.46-2.94 2.89-1.99 4.59-5.1 1.7-3.1 1.7-7.35 0-3.91-1.36-6.76-1.36-2.84-3.69-4.84-2.34-2-5.19-3.49-2.85-1.48-5.95-2.67t-5.95-2.38q-2.85-1.19-5.18-2.64-2.34-1.44-3.7-3.4-1.36-1.95-1.36-4.67 0-2.81 1.32-4.68 1.31-1.87 3.48-2.93t4.63-1.49q2.47-.42 4.76-.42 2.04 0 4.04.25 2 .26 3.91.85 1.91.6 3.61 1.53"></path><rect width="40.29" height="61.28" x="-20.14" y="-30.64" fill="none" rx="0" ry="0" transform="translate(24.3 112.36)"></rect><path fill="#fff" d="m89.335 141.485-19.38-59.5h-4.5l-19.13 59.5h5.1l6.72-20.82h19.29l6.89 20.82Zm-29.92-25.5 8.25-26.69 8.5 26.69Z"></path><rect width="43.01" height="59.5" x="-21.5" y="-29.75" fill="none" rx="0" ry="0" transform="translate(68.33 112.23)"></rect><path fill="#fff" d="M117.475 81.985h-20.06v59.5h4.84v-20.82h15.22q4.25 0 7.44-1.07 3.18-1.06 5.27-3.35 2.08-2.3 3.14-6.04t1.06-9.01q0-5.44-1.1-9.14-1.11-3.69-3.27-5.9-2.17-2.21-5.32-3.19-3.14-.98-7.22-.98m-15.22 34v-29.49h15.64q2.47 0 4.59.63 2.13.64 3.7 2.21 1.57 1.58 2.47 4.47.89 2.89.89 7.39 0 4.85-.89 7.82-.9 2.98-2.51 4.46-1.62 1.49-3.7 2t-4.55.51Z"></path><rect width="36.97" height="59.5" x="-18.48" y="-29.75" fill="none" rx="0" ry="0" transform="translate(116.4 112.23)"></rect><path fill="#fff" d="M141.355 98.305v27.37q0 5.53 2.43 9.27 2.42 3.74 6.5 5.61t9.09 1.87q5.27 0 9.31-2.04 4.04-2.04 6.29-5.78t2.25-8.93v-27.28q0-8.33-4.67-13.05-4.68-4.72-13.09-4.72-8.42 0-13.26 4.51-4.85 4.5-4.85 13.17m4.85 27.29v-28.05q0-4.17 1.61-6.89 1.62-2.72 4.55-4.12 2.93-1.4 6.84-1.4 4.08 0 7.06 1.4 2.97 1.4 4.59 4.12 1.61 2.72 1.61 6.89v28.05q0 4.16-1.7 6.92-1.7 2.77-4.67 4.08-2.98 1.32-6.89 1.32-3.74 0-6.67-1.4-2.93-1.4-4.63-4.12-1.7-2.72-1.7-6.8"></path><rect width="35.87" height="61.8" x="-17.93" y="-30.9" fill="none" rx="0" ry="0" transform="translate(159.79 112.03)"></rect><path fill="#fff" d="M226.695 81.985h-4.76v50.75l-32.3-50.75h-4.84v59.5h4.84v-50.74l32.3 50.74h4.76Z"></path><rect width="41.9" height="59.5" x="-20.95" y="-29.75" fill="none" rx="0" ry="0" transform="translate(206.25 112.23)"></rect><path fill="#fff" d="m278.035 141.485-19.38-59.5h-4.5l-19.13 59.5h5.1l6.72-20.82h19.29l6.89 20.82Zm-29.92-25.5 8.25-26.69 8.5 26.69Z"></path><rect width="43.01" height="59.5" x="-21.5" y="-29.75" fill="none" rx="0" ry="0" transform="translate(257.03 112.23)"></rect><path fill="#fff" d="M306.175 81.985h-20.06v59.5h4.84v-20.82h15.22q.85 0 1.66-.05.8-.04 1.57-.12.76-.09 1.44-.26l7.74 21.25h4.84l-8.24-22.52q2.72-1.36 4.46-3.66 1.74-2.29 2.59-5.78.85-3.48.85-8.33 0-5.44-1.1-9.14-1.11-3.69-3.27-5.9-2.17-2.21-5.32-3.19-3.14-.98-7.22-.98m.42 34h-15.64v-29.49h15.64q2.47 0 4.59.63 2.13.64 3.7 2.21 1.57 1.58 2.47 4.47.89 2.89.89 7.39 0 4.85-.89 7.82-.9 2.98-2.51 4.46-1.62 1.49-3.7 2t-4.55.51"></path><rect width="37.31" height="59.5" x="-18.66" y="-29.75" fill="none" rx="0" ry="0" transform="translate(305.27 112.23)"></rect><path fill="#fff" d="m374.345 141.485-19.38-59.5h-4.51l-19.12 59.5h5.1l6.71-20.82h19.3l6.88 20.82Zm-29.92-25.5 8.24-26.69 8.5 26.69Z"></path><rect width="43.01" height="59.5" x="-21.5" y="-29.75" fill="none" rx="0" ry="0" transform="translate(353.34 112.23)"></rect></svg></svg>